<svg xmlns="http://www.w3.org/2000/svg" xmlns:xlink="http://www.w3.org/1999/xlink" width="400" zoomAndPan="magnify" viewBox="0 0 300 299.999988" height="400" preserveAspectRatio="xMidYMid meet" version="1.0"><defs><clipPath id="0c8eaf638e"><path d="M 9.230469 12 L 290.480469 12 L 290.480469 287 L 9.230469 287 Z M 9.230469 12 " clip-rule="nonzero"/></clipPath></defs><g clip-path="url(#0c8eaf638e)"><path fill="#000000" d="M 149.855469 12.476562 C 72.191406 12.476562 9.230469 75.351562 9.230469 152.847656 C 9.230469 214.878906 49.542969 267.527344 105.402344 286.121094 C 112.417969 287.386719 117.402344 280.203125 117.402344 274.796875 C 117.402344 271.5 117.488281 267.527344 117.402344 255.867188 C 78.277344 264.316406 66.023438 236.933594 66.023438 236.933594 C 59.597656 220.710938 51.824219 216.0625 51.824219 216.0625 C 39.0625 207.355469 52.753906 207.609375 52.753906 207.609375 C 66.867188 208.539062 74.132812 220.710938 74.132812 220.710938 C 84.953125 239.640625 109.375 237.78125 117.402344 234.230469 C 117.402344 225.609375 118.332031 219.355469 120.699219 215.386719 C 76.5 207.609375 52.414062 182.089844 52.5 146.761719 C 52.585938 125.890625 59.769531 109.664062 71.429688 97.664062 C 66.359375 91.238281 62.894531 69.265625 73.289062 55.746094 C 99.402344 55.746094 114.953125 74.589844 114.953125 74.589844 C 114.953125 74.589844 127.207031 69.265625 149.769531 69.265625 C 172.421875 69.265625 184.589844 74.335938 184.589844 74.335938 C 184.589844 74.335938 200.222656 55.746094 226.335938 55.746094 C 236.730469 69.265625 233.265625 91.238281 229.210938 97.238281 C 240.367188 108.988281 247.210938 125.210938 247.210938 146.761719 C 247.210938 182.089844 223.210938 207.609375 179.097656 215.300781 C 181.886719 219.527344 182.308594 225.441406 182.308594 234.230469 C 182.308594 252.992188 182.308594 270.148438 182.308594 274.796875 C 182.308594 280.203125 187.210938 287.472656 194.394531 286.121094 C 250.253906 267.441406 290.480469 214.878906 290.480469 152.847656 C 290.480469 75.351562 227.519531 12.476562 149.855469 12.476562 Z M 149.855469 12.476562 " fill-opacity="1" fill-rule="nonzero"/></g></svg>