<svg xmlns="http://www.w3.org/2000/svg" xmlns:xlink="http://www.w3.org/1999/xlink" width="400" zoomAndPan="magnify" viewBox="0 0 300 299.999988" height="400" preserveAspectRatio="xMidYMid meet" version="1.0"><defs><clipPath id="defee82ec6"><path d="M 10.054688 10.054688 L 289.804688 10.054688 L 289.804688 289.804688 L 10.054688 289.804688 Z M 10.054688 10.054688 " clip-rule="nonzero"/></clipPath></defs><g clip-path="url(#defee82ec6)"><path fill="#000000" d="M 289.804688 149.929688 C 289.804688 227.210938 227.210938 289.804688 149.929688 289.804688 C 72.648438 289.804688 10.054688 227.210938 10.054688 149.929688 C 10.054688 72.648438 72.648438 10.054688 149.929688 10.054688 C 227.210938 10.054688 289.804688 72.648438 289.804688 149.929688 Z M 124.332031 223.714844 C 186.367188 223.714844 220.285156 172.308594 220.285156 127.757812 C 220.285156 126.292969 220.285156 124.824219 220.21875 123.421875 C 226.792969 118.667969 232.527344 112.722656 237.070312 105.9375 C 231.058594 108.597656 224.554688 110.414062 217.699219 111.253906 C 224.691406 107.058594 230.007812 100.484375 232.527344 92.582031 C 226.023438 96.429688 218.816406 99.226562 211.125 100.765625 C 204.972656 94.191406 196.230469 90.132812 186.507812 90.132812 C 167.902344 90.132812 152.796875 105.238281 152.796875 123.84375 C 152.796875 126.5 153.078125 129.089844 153.707031 131.535156 C 125.660156 130.136719 100.832031 116.710938 84.1875 96.289062 C 81.320312 101.253906 79.644531 107.058594 79.644531 113.210938 C 79.644531 124.890625 85.585938 135.242188 94.679688 141.257812 C 89.152344 141.117188 83.980469 139.578125 79.433594 137.0625 C 79.433594 137.203125 79.433594 137.339844 79.433594 137.480469 C 79.433594 153.847656 91.042969 167.414062 106.5 170.5625 C 103.703125 171.332031 100.695312 171.75 97.617188 171.75 C 95.449219 171.75 93.351562 171.539062 91.253906 171.121094 C 95.519531 184.550781 107.96875 194.269531 122.722656 194.550781 C 111.183594 203.570312 96.636719 208.957031 80.832031 208.957031 C 78.105469 208.957031 75.445312 208.816406 72.789062 208.46875 C 87.546875 218.117188 105.308594 223.714844 124.332031 223.714844 " fill-opacity="1" fill-rule="nonzero"/></g></svg>