<svg xmlns="http://www.w3.org/2000/svg" xmlns:xlink="http://www.w3.org/1999/xlink" width="400" zoomAndPan="magnify" viewBox="0 0 300 299.999988" height="400" preserveAspectRatio="xMidYMid meet" version="1.0"><defs><clipPath id="41b4c8d53e"><path d="M 10.054688 10.753906 L 289.054688 10.753906 L 289.054688 289.753906 L 10.054688 289.753906 Z M 10.054688 10.753906 " clip-rule="nonzero"/></clipPath></defs><g clip-path="url(#41b4c8d53e)"><path fill="#000000" d="M 149.554688 10.753906 C 72.496094 10.753906 10.054688 73.199219 10.054688 150.253906 C 10.054688 227.3125 72.496094 289.753906 149.554688 289.753906 C 226.613281 289.753906 289.054688 227.3125 289.054688 150.253906 C 288.933594 73.199219 226.492188 10.753906 149.554688 10.753906 Z M 108.609375 224.535156 L 75.878906 224.535156 L 75.878906 118.972656 L 108.609375 118.972656 Z M 92.304688 104.960938 C 81.796875 104.960938 73.222656 96.386719 73.222656 85.878906 C 73.222656 75.371094 81.796875 66.796875 92.304688 66.796875 C 102.8125 66.796875 111.390625 75.371094 111.390625 85.878906 C 111.390625 96.386719 102.8125 104.960938 92.304688 104.960938 Z M 231.5625 224.535156 L 198.832031 224.535156 L 198.832031 171.753906 C 198.832031 164.265625 198.832031 145.664062 182.164062 145.664062 C 163.203125 145.664062 161.996094 164.867188 161.996094 164.867188 L 161.996094 224.535156 L 129.386719 224.535156 L 129.386719 118.972656 L 162.117188 118.972656 L 162.117188 133.464844 C 169.847656 117.765625 185.789062 116.558594 196.175781 116.558594 C 208.011719 116.558594 218.640625 121.148438 224.679688 131.292969 C 229.875 139.867188 231.5625 152.308594 231.5625 171.753906 Z M 231.5625 224.535156 " fill-opacity="1" fill-rule="nonzero"/></g></svg>