<svg xmlns="http://www.w3.org/2000/svg" xmlns:xlink="http://www.w3.org/1999/xlink" width="400" zoomAndPan="magnify" viewBox="0 0 300 299.999988" height="400" preserveAspectRatio="xMidYMid meet" version="1.0"><defs><clipPath id="2fa9ce6673"><path d="M 10.433594 10.433594 L 289.433594 10.433594 L 289.433594 289.433594 L 10.433594 289.433594 Z M 10.433594 10.433594 " clip-rule="nonzero"/></clipPath></defs><g clip-path="url(#2fa9ce6673)"><path fill="#000000" d="M 149.933594 10.433594 C 72.890625 10.433594 10.433594 72.890625 10.433594 149.933594 C 10.433594 226.976562 72.890625 289.433594 149.933594 289.433594 C 226.976562 289.433594 289.433594 226.976562 289.433594 149.933594 C 289.433594 72.890625 226.976562 10.433594 149.933594 10.433594 Z M 231.050781 153.878906 C 227.074219 157.855469 221.207031 158.777344 216.347656 156.660156 L 216.347656 209.570312 C 216.347656 220.574219 207.425781 229.492188 196.421875 229.492188 L 103.445312 229.492188 C 92.441406 229.492188 83.523438 220.574219 83.523438 209.570312 L 83.523438 156.660156 C 78.664062 158.777344 72.792969 157.855469 68.816406 153.878906 C 63.628906 148.691406 63.628906 140.28125 68.816406 135.09375 L 140.542969 63.367188 C 145.730469 58.179688 154.140625 58.179688 159.328125 63.367188 L 231.050781 135.09375 C 236.238281 140.28125 236.238281 148.691406 231.050781 153.878906 Z M 231.050781 153.878906 " fill-opacity="1" fill-rule="nonzero"/></g><path fill="#000000" d="M 166.539062 156.441406 L 133.332031 156.441406 C 129.664062 156.441406 126.691406 159.414062 126.691406 163.082031 L 126.691406 202.929688 C 126.691406 206.597656 129.664062 209.570312 133.332031 209.570312 L 166.539062 209.570312 C 170.207031 209.570312 173.179688 206.597656 173.179688 202.929688 L 173.179688 163.082031 C 173.179688 159.414062 170.207031 156.441406 166.539062 156.441406 Z M 166.539062 156.441406 " fill-opacity="1" fill-rule="nonzero"/></svg>