<svg xmlns="http://www.w3.org/2000/svg" xmlns:xlink="http://www.w3.org/1999/xlink" width="400" zoomAndPan="magnify" viewBox="0 0 300 299.999988" height="400" preserveAspectRatio="xMidYMid meet" version="1.0"><defs><clipPath id="c420978892"><path d="M 10.433594 10.433594 L 289.433594 10.433594 L 289.433594 289.433594 L 10.433594 289.433594 Z M 10.433594 10.433594 " clip-rule="nonzero"/></clipPath></defs><g clip-path="url(#c420978892)"><path fill="#0277b5" d="M 150 10.433594 C 72.917969 10.433594 10.433594 72.917969 10.433594 150 C 10.433594 227.078125 72.917969 289.5625 150 289.5625 C 227.078125 289.5625 289.5625 227.078125 289.5625 150 C 289.5625 72.917969 227.078125 10.433594 150 10.433594 Z M 231.152344 153.945312 C 227.175781 157.921875 221.304688 158.847656 216.441406 156.726562 L 216.441406 209.660156 C 216.441406 220.671875 207.515625 229.59375 196.507812 229.59375 L 103.488281 229.59375 C 92.480469 229.59375 83.554688 220.667969 83.554688 209.660156 L 83.554688 156.726562 C 78.695312 158.847656 72.824219 157.921875 68.84375 153.945312 C 63.65625 148.753906 63.65625 140.339844 68.84375 135.152344 L 140.601562 63.390625 C 145.792969 58.203125 154.207031 58.203125 159.394531 63.390625 L 231.152344 135.152344 C 236.34375 140.339844 236.34375 148.753906 231.152344 153.945312 Z M 231.152344 153.945312 " fill-opacity="1" fill-rule="nonzero"/></g><path fill="#0277b5" d="M 166.609375 156.507812 L 133.386719 156.507812 C 129.71875 156.507812 126.742188 159.480469 126.742188 163.152344 L 126.742188 203.015625 C 126.742188 206.6875 129.71875 209.664062 133.386719 209.664062 L 166.609375 209.664062 C 170.28125 209.664062 173.253906 206.6875 173.253906 203.015625 L 173.253906 163.152344 C 173.253906 159.480469 170.28125 156.507812 166.609375 156.507812 Z M 166.609375 156.507812 " fill-opacity="1" fill-rule="nonzero"/></svg>