<svg xmlns="http://www.w3.org/2000/svg" xmlns:xlink="http://www.w3.org/1999/xlink" width="400" zoomAndPan="magnify" viewBox="0 0 300 299.999988" height="400" preserveAspectRatio="xMidYMid meet" version="1.0"><defs><clipPath id="5a2db259a3"><path d="M 12.300781 12.300781 L 287.550781 12.300781 L 287.550781 287.550781 L 12.300781 287.550781 Z M 12.300781 12.300781 " clip-rule="nonzero"/></clipPath></defs><g clip-path="url(#5a2db259a3)"><path fill="#0277b5" d="M 264.554688 12.300781 L 35.433594 12.300781 C 22.765625 12.300781 12.574219 22.628906 12.574219 35.15625 L 12.574219 264.691406 C 12.574219 277.359375 22.902344 287.550781 35.433594 287.550781 L 264.417969 287.550781 C 277.085938 287.550781 287.273438 277.222656 287.273438 264.691406 L 287.273438 35.15625 C 287.414062 22.628906 277.222656 12.300781 264.554688 12.300781 Z M 93.953125 239.355469 L 53.332031 239.355469 L 53.332031 117.359375 L 93.953125 117.359375 Z M 73.574219 102.628906 C 60.769531 102.628906 50.441406 92.300781 50.441406 79.496094 C 50.441406 66.6875 60.769531 56.363281 73.574219 56.363281 C 86.378906 56.363281 96.707031 66.6875 96.707031 79.496094 C 96.707031 92.300781 86.378906 102.628906 73.574219 102.628906 Z M 246.792969 239.355469 L 206.035156 239.355469 L 205.070312 166.929688 C 205.070312 166.929688 206.035156 147.652344 184.96875 147.789062 C 163.902344 147.929688 161.007812 166.929688 161.007812 166.929688 L 161.007812 239.355469 L 119.976562 239.355469 L 119.976562 117.359375 L 159.355469 117.359375 L 159.355469 134.160156 C 159.355469 134.160156 161.007812 128.652344 170.097656 122.179688 C 179.183594 115.707031 194.195312 114.332031 200.664062 114.605469 C 207.136719 114.882812 215.949219 113.78125 230.683594 123.96875 C 246.515625 134.847656 246.929688 163.351562 246.929688 163.351562 Z M 246.792969 239.355469 " fill-opacity="1" fill-rule="nonzero"/></g></svg>