<svg xmlns="http://www.w3.org/2000/svg" xmlns:xlink="http://www.w3.org/1999/xlink" width="400" zoomAndPan="magnify" viewBox="0 0 300 299.999988" height="400" preserveAspectRatio="xMidYMid meet" version="1.0"><defs><clipPath id="741c84bd27"><path d="M 13.976562 13.976562 L 286.226562 13.976562 L 286.226562 286.226562 L 13.976562 286.226562 Z M 13.976562 13.976562 " clip-rule="nonzero"/></clipPath></defs><g clip-path="url(#741c84bd27)"><path fill="#46cc6b" d="M 286.234375 150.109375 C 286.234375 225.289062 225.289062 286.234375 150.109375 286.234375 C 123.472656 286.234375 98.625 278.585938 77.640625 265.363281 L 13.984375 277.898438 L 39.761719 229.839844 C 23.542969 207.429688 13.984375 179.886719 13.984375 150.109375 C 13.984375 74.929688 74.929688 13.984375 150.109375 13.984375 C 225.289062 13.984375 286.234375 74.929688 286.234375 150.109375 Z M 286.234375 150.109375 " fill-opacity="1" fill-rule="nonzero"/></g><path fill="#ffffff" d="M 260.933594 150.109375 C 260.933594 151.921875 260.886719 153.734375 260.796875 155.546875 C 260.710938 157.359375 260.578125 159.167969 260.398438 160.972656 C 260.21875 162.777344 260 164.578125 259.734375 166.371094 C 259.464844 168.164062 259.15625 169.953125 258.800781 171.730469 C 258.449219 173.507812 258.050781 175.277344 257.609375 177.039062 C 257.171875 178.796875 256.6875 180.542969 256.160156 182.28125 C 255.632812 184.015625 255.066406 185.738281 254.453125 187.445312 C 253.84375 189.152344 253.191406 190.84375 252.496094 192.519531 C 251.800781 194.195312 251.066406 195.851562 250.292969 197.492188 C 249.515625 199.132812 248.703125 200.75 247.847656 202.351562 C 246.992188 203.949219 246.097656 205.527344 245.164062 207.082031 C 244.234375 208.640625 243.261719 210.171875 242.253906 211.679688 C 241.246094 213.1875 240.203125 214.667969 239.125 216.125 C 238.042969 217.582031 236.925781 219.011719 235.777344 220.414062 C 234.625 221.816406 233.441406 223.191406 232.222656 224.535156 C 231.003906 225.878906 229.753906 227.191406 228.472656 228.472656 C 227.191406 229.753906 225.878906 231.003906 224.535156 232.222656 C 223.191406 233.441406 221.816406 234.625 220.414062 235.777344 C 219.011719 236.925781 217.582031 238.042969 216.125 239.125 C 214.667969 240.203125 213.1875 241.246094 211.679688 242.253906 C 210.171875 243.261719 208.640625 244.234375 207.082031 245.164062 C 205.527344 246.097656 203.949219 246.992188 202.351562 247.847656 C 200.75 248.703125 199.132812 249.515625 197.492188 250.292969 C 195.851562 251.066406 194.195312 251.800781 192.519531 252.496094 C 190.84375 253.191406 189.152344 253.84375 187.445312 254.453125 C 185.738281 255.066406 184.015625 255.632812 182.28125 256.160156 C 180.542969 256.6875 178.796875 257.171875 177.039062 257.609375 C 175.277344 258.050781 173.507812 258.449219 171.730469 258.800781 C 169.953125 259.15625 168.164062 259.464844 166.371094 259.734375 C 164.578125 260 162.777344 260.21875 160.972656 260.398438 C 159.167969 260.578125 157.359375 260.710938 155.546875 260.796875 C 153.734375 260.886719 151.921875 260.933594 150.109375 260.933594 C 148.296875 260.933594 146.484375 260.886719 144.671875 260.796875 C 142.859375 260.710938 141.050781 260.578125 139.246094 260.398438 C 137.441406 260.21875 135.644531 260 133.847656 259.734375 C 132.054688 259.464844 130.269531 259.15625 128.488281 258.800781 C 126.710938 258.449219 124.941406 258.050781 123.183594 257.609375 C 121.421875 257.171875 119.675781 256.6875 117.941406 256.160156 C 116.203125 255.632812 114.484375 255.066406 112.773438 254.453125 C 111.066406 253.84375 109.375 253.191406 107.699219 252.496094 C 106.023438 251.800781 104.367188 251.066406 102.726562 250.292969 C 101.085938 249.515625 99.46875 248.703125 97.867188 247.847656 C 96.269531 246.992188 94.691406 246.097656 93.136719 245.164062 C 91.578125 244.234375 90.046875 243.261719 88.539062 242.253906 C 87.03125 241.246094 85.550781 240.203125 84.09375 239.125 C 82.636719 238.042969 81.207031 236.925781 79.804688 235.777344 C 78.402344 234.625 77.03125 233.441406 75.6875 232.222656 C 74.34375 231.003906 73.027344 229.753906 71.746094 228.472656 C 70.464844 227.191406 69.214844 225.878906 67.996094 224.535156 C 66.777344 223.191406 65.59375 221.816406 64.441406 220.414062 C 63.292969 219.011719 62.175781 217.582031 61.097656 216.125 C 60.015625 214.667969 58.972656 213.1875 57.964844 211.679688 C 56.957031 210.171875 55.988281 208.640625 55.054688 207.082031 C 54.121094 205.527344 53.226562 203.949219 52.375 202.351562 C 51.519531 200.75 50.703125 199.132812 49.925781 197.492188 C 49.152344 195.851562 48.417969 194.195312 47.722656 192.519531 C 47.027344 190.84375 46.375 189.152344 45.765625 187.445312 C 45.15625 185.738281 44.585938 184.015625 44.058594 182.28125 C 43.53125 180.542969 43.050781 178.796875 42.609375 177.039062 C 42.167969 175.277344 41.769531 173.507812 41.417969 171.730469 C 41.0625 169.953125 40.753906 168.164062 40.488281 166.371094 C 40.222656 164.578125 40 162.777344 39.820312 160.972656 C 39.644531 159.167969 39.511719 157.359375 39.421875 155.546875 C 39.332031 153.734375 39.289062 151.921875 39.289062 150.109375 C 39.289062 148.296875 39.332031 146.484375 39.421875 144.671875 C 39.511719 142.859375 39.644531 141.050781 39.820312 139.246094 C 40 137.441406 40.222656 135.644531 40.488281 133.847656 C 40.753906 132.054688 41.0625 130.269531 41.417969 128.488281 C 41.769531 126.710938 42.167969 124.941406 42.609375 123.183594 C 43.050781 121.421875 43.53125 119.675781 44.058594 117.941406 C 44.585938 116.203125 45.15625 114.484375 45.765625 112.773438 C 46.375 111.066406 47.027344 109.375 47.722656 107.699219 C 48.417969 106.023438 49.152344 104.367188 49.925781 102.726562 C 50.703125 101.085938 51.519531 99.46875 52.375 97.867188 C 53.226562 96.269531 54.121094 94.691406 55.054688 93.136719 C 55.988281 91.578125 56.957031 90.046875 57.964844 88.539062 C 58.972656 87.03125 60.015625 85.550781 61.097656 84.09375 C 62.175781 82.636719 63.292969 81.207031 64.441406 79.804688 C 65.59375 78.402344 66.777344 77.03125 67.996094 75.6875 C 69.214844 74.34375 70.464844 73.027344 71.746094 71.746094 C 73.027344 70.464844 74.34375 69.214844 75.6875 67.996094 C 77.03125 66.777344 78.402344 65.59375 79.804688 64.441406 C 81.207031 63.292969 82.636719 62.175781 84.09375 61.097656 C 85.550781 60.015625 87.03125 58.972656 88.539062 57.964844 C 90.046875 56.957031 91.578125 55.988281 93.136719 55.054688 C 94.691406 54.121094 96.269531 53.226562 97.867188 52.375 C 99.46875 51.519531 101.085938 50.703125 102.726562 49.925781 C 104.367188 49.152344 106.023438 48.417969 107.699219 47.722656 C 109.375 47.027344 111.066406 46.375 112.773438 45.765625 C 114.484375 45.15625 116.203125 44.585938 117.941406 44.058594 C 119.675781 43.53125 121.421875 43.050781 123.183594 42.609375 C 124.941406 42.167969 126.710938 41.769531 128.488281 41.417969 C 130.269531 41.0625 132.054688 40.753906 133.847656 40.488281 C 135.644531 40.222656 137.441406 40 139.246094 39.820312 C 141.050781 39.644531 142.859375 39.511719 144.671875 39.421875 C 146.484375 39.332031 148.296875 39.289062 150.109375 39.289062 C 151.921875 39.289062 153.734375 39.332031 155.546875 39.421875 C 157.359375 39.511719 159.167969 39.644531 160.972656 39.820312 C 162.777344 40 164.578125 40.222656 166.371094 40.488281 C 168.164062 40.753906 169.953125 41.0625 171.730469 41.417969 C 173.507812 41.769531 175.277344 42.167969 177.039062 42.609375 C 178.796875 43.050781 180.542969 43.53125 182.28125 44.058594 C 184.015625 44.585938 185.738281 45.15625 187.445312 45.765625 C 189.152344 46.375 190.84375 47.027344 192.519531 47.722656 C 194.195312 48.417969 195.851562 49.152344 197.492188 49.925781 C 199.132812 50.703125 200.75 51.519531 202.351562 52.375 C 203.949219 53.226562 205.527344 54.121094 207.082031 55.054688 C 208.640625 55.988281 210.171875 56.957031 211.679688 57.964844 C 213.1875 58.972656 214.667969 60.015625 216.125 61.097656 C 217.582031 62.175781 219.011719 63.292969 220.414062 64.441406 C 221.816406 65.59375 223.191406 66.777344 224.535156 67.996094 C 225.878906 69.214844 227.191406 70.464844 228.472656 71.746094 C 229.753906 73.027344 231.003906 74.34375 232.222656 75.6875 C 233.441406 77.03125 234.625 78.402344 235.777344 79.804688 C 236.925781 81.207031 238.042969 82.636719 239.125 84.09375 C 240.203125 85.550781 241.246094 87.03125 242.253906 88.539062 C 243.261719 90.046875 244.234375 91.578125 245.164062 93.136719 C 246.097656 94.691406 246.992188 96.269531 247.847656 97.867188 C 248.703125 99.46875 249.515625 101.085938 250.292969 102.726562 C 251.066406 104.367188 251.800781 106.023438 252.496094 107.699219 C 253.191406 109.375 253.84375 111.066406 254.453125 112.773438 C 255.066406 114.484375 255.632812 116.203125 256.160156 117.941406 C 256.6875 119.675781 257.171875 121.421875 257.609375 123.183594 C 258.050781 124.941406 258.449219 126.710938 258.800781 128.488281 C 259.15625 130.269531 259.464844 132.054688 259.734375 133.847656 C 260 135.644531 260.21875 137.441406 260.398438 139.246094 C 260.578125 141.050781 260.710938 142.859375 260.796875 144.671875 C 260.886719 146.484375 260.933594 148.296875 260.933594 150.109375 Z M 260.933594 150.109375 " fill-opacity="1" fill-rule="nonzero"/><path fill="#46cc6b" d="M 239.550781 150.109375 C 239.550781 151.574219 239.515625 153.035156 239.445312 154.5 C 239.371094 155.960938 239.265625 157.421875 239.121094 158.875 C 238.976562 160.332031 238.800781 161.785156 238.585938 163.234375 C 238.371094 164.683594 238.121094 166.125 237.832031 167.558594 C 237.546875 168.996094 237.226562 170.421875 236.871094 171.84375 C 236.515625 173.261719 236.125 174.671875 235.699219 176.074219 C 235.277344 177.472656 234.816406 178.863281 234.324219 180.242188 C 233.832031 181.621094 233.304688 182.984375 232.742188 184.339844 C 232.183594 185.691406 231.589844 187.027344 230.964844 188.351562 C 230.339844 189.675781 229.679688 190.980469 228.992188 192.273438 C 228.300781 193.5625 227.578125 194.835938 226.828125 196.09375 C 226.074219 197.347656 225.292969 198.585938 224.480469 199.800781 C 223.664062 201.019531 222.824219 202.214844 221.949219 203.390625 C 221.078125 204.566406 220.179688 205.71875 219.25 206.851562 C 218.320312 207.984375 217.367188 209.089844 216.382812 210.175781 C 215.398438 211.261719 214.390625 212.320312 213.355469 213.355469 C 212.320312 214.390625 211.261719 215.398438 210.175781 216.382812 C 209.089844 217.367188 207.984375 218.320312 206.851562 219.25 C 205.71875 220.179688 204.566406 221.078125 203.390625 221.949219 C 202.214844 222.824219 201.019531 223.664062 199.800781 224.480469 C 198.585938 225.292969 197.347656 226.074219 196.09375 226.828125 C 194.835938 227.578125 193.5625 228.300781 192.273438 228.992188 C 190.980469 229.679688 189.675781 230.339844 188.351562 230.964844 C 187.027344 231.589844 185.691406 232.183594 184.339844 232.742188 C 182.984375 233.304688 181.621094 233.832031 180.242188 234.324219 C 178.863281 234.816406 177.472656 235.277344 176.074219 235.699219 C 174.671875 236.125 173.261719 236.515625 171.84375 236.871094 C 170.421875 237.226562 168.996094 237.546875 167.558594 237.832031 C 166.125 238.121094 164.683594 238.371094 163.234375 238.585938 C 161.785156 238.800781 160.332031 238.976562 158.875 239.121094 C 157.421875 239.265625 155.960938 239.371094 154.5 239.445312 C 153.035156 239.515625 151.574219 239.550781 150.109375 239.550781 C 148.644531 239.550781 147.183594 239.515625 145.722656 239.445312 C 144.257812 239.371094 142.800781 239.265625 141.34375 239.121094 C 139.886719 238.976562 138.433594 238.800781 136.984375 238.585938 C 135.539062 238.371094 134.097656 238.121094 132.660156 237.832031 C 131.226562 237.546875 129.796875 237.226562 128.375 236.871094 C 126.957031 236.515625 125.546875 236.125 124.144531 235.699219 C 122.746094 235.277344 121.355469 234.816406 119.976562 234.324219 C 118.597656 233.832031 117.234375 233.304688 115.882812 232.742188 C 114.527344 232.183594 113.191406 231.589844 111.867188 230.964844 C 110.542969 230.339844 109.238281 229.679688 107.945312 228.992188 C 106.65625 228.300781 105.382812 227.578125 104.128906 226.828125 C 102.871094 226.074219 101.636719 225.292969 100.417969 224.480469 C 99.199219 223.664062 98.003906 222.824219 96.828125 221.949219 C 95.652344 221.078125 94.5 220.179688 93.367188 219.25 C 92.238281 218.320312 91.128906 217.367188 90.042969 216.382812 C 88.960938 215.398438 87.898438 214.390625 86.863281 213.355469 C 85.828125 212.320312 84.820312 211.261719 83.835938 210.175781 C 82.855469 209.089844 81.898438 207.984375 80.96875 206.851562 C 80.039062 205.71875 79.140625 204.566406 78.269531 203.390625 C 77.398438 202.214844 76.554688 201.019531 75.742188 199.800781 C 74.925781 198.585938 74.144531 197.347656 73.390625 196.09375 C 72.640625 194.835938 71.917969 193.5625 71.226562 192.273438 C 70.539062 190.980469 69.878906 189.675781 69.253906 188.351562 C 68.628906 187.027344 68.035156 185.691406 67.476562 184.339844 C 66.914062 182.984375 66.386719 181.621094 65.894531 180.242188 C 65.402344 178.863281 64.941406 177.472656 64.519531 176.074219 C 64.09375 174.671875 63.703125 173.261719 63.347656 171.84375 C 62.992188 170.421875 62.671875 168.996094 62.386719 167.558594 C 62.101562 166.125 61.851562 164.683594 61.636719 163.234375 C 61.421875 161.785156 61.242188 160.332031 61.097656 158.875 C 60.953125 157.421875 60.847656 155.960938 60.773438 154.5 C 60.703125 153.035156 60.667969 151.574219 60.667969 150.109375 C 60.667969 148.644531 60.703125 147.183594 60.773438 145.722656 C 60.847656 144.257812 60.953125 142.800781 61.097656 141.34375 C 61.242188 139.886719 61.421875 138.433594 61.636719 136.984375 C 61.851562 135.539062 62.101562 134.097656 62.386719 132.660156 C 62.671875 131.226562 62.992188 129.796875 63.347656 128.375 C 63.703125 126.957031 64.09375 125.546875 64.519531 124.144531 C 64.941406 122.746094 65.402344 121.355469 65.894531 119.976562 C 66.386719 118.597656 66.914062 117.234375 67.476562 115.882812 C 68.035156 114.527344 68.628906 113.191406 69.253906 111.867188 C 69.878906 110.542969 70.539062 109.238281 71.226562 107.945312 C 71.917969 106.65625 72.640625 105.382812 73.390625 104.128906 C 74.144531 102.871094 74.925781 101.636719 75.742188 100.417969 C 76.554688 99.199219 77.398438 98.003906 78.269531 96.828125 C 79.140625 95.652344 80.039062 94.5 80.96875 93.367188 C 81.898438 92.238281 82.855469 91.128906 83.835938 90.042969 C 84.820312 88.960938 85.828125 87.898438 86.863281 86.863281 C 87.898438 85.828125 88.960938 84.820312 90.042969 83.835938 C 91.128906 82.855469 92.238281 81.898438 93.367188 80.96875 C 94.5 80.039062 95.652344 79.140625 96.828125 78.269531 C 98.003906 77.398438 99.199219 76.554688 100.417969 75.742188 C 101.636719 74.925781 102.871094 74.144531 104.128906 73.390625 C 105.382812 72.640625 106.65625 71.917969 107.945312 71.226562 C 109.238281 70.539062 110.542969 69.878906 111.867188 69.253906 C 113.191406 68.628906 114.527344 68.035156 115.882812 67.476562 C 117.234375 66.914062 118.597656 66.386719 119.976562 65.894531 C 121.355469 65.402344 122.746094 64.941406 124.144531 64.519531 C 125.546875 64.09375 126.957031 63.703125 128.375 63.347656 C 129.796875 62.992188 131.226562 62.671875 132.660156 62.386719 C 134.097656 62.101562 135.539062 61.851562 136.984375 61.636719 C 138.433594 61.421875 139.886719 61.242188 141.34375 61.097656 C 142.800781 60.953125 144.257812 60.847656 145.722656 60.773438 C 147.183594 60.703125 148.644531 60.667969 150.109375 60.667969 C 151.574219 60.667969 153.035156 60.703125 154.5 60.773438 C 155.960938 60.847656 157.421875 60.953125 158.875 61.097656 C 160.332031 61.242188 161.785156 61.421875 163.234375 61.636719 C 164.683594 61.851562 166.125 62.101562 167.558594 62.386719 C 168.996094 62.671875 170.421875 62.992188 171.84375 63.347656 C 173.261719 63.703125 174.671875 64.09375 176.074219 64.519531 C 177.472656 64.941406 178.863281 65.402344 180.242188 65.894531 C 181.621094 66.386719 182.984375 66.914062 184.339844 67.476562 C 185.691406 68.035156 187.027344 68.628906 188.351562 69.253906 C 189.675781 69.878906 190.980469 70.539062 192.273438 71.226562 C 193.5625 71.917969 194.835938 72.640625 196.09375 73.390625 C 197.347656 74.144531 198.585938 74.925781 199.800781 75.742188 C 201.019531 76.554688 202.214844 77.398438 203.390625 78.269531 C 204.566406 79.140625 205.71875 80.039062 206.851562 80.96875 C 207.984375 81.898438 209.089844 82.855469 210.175781 83.835938 C 211.261719 84.820312 212.320312 85.828125 213.355469 86.863281 C 214.390625 87.898438 215.398438 88.960938 216.382812 90.042969 C 217.367188 91.128906 218.320312 92.238281 219.25 93.367188 C 220.179688 94.5 221.078125 95.652344 221.949219 96.828125 C 222.824219 98.003906 223.664062 99.199219 224.480469 100.417969 C 225.292969 101.636719 226.074219 102.871094 226.828125 104.128906 C 227.578125 105.382812 228.300781 106.65625 228.992188 107.945312 C 229.679688 109.238281 230.339844 110.542969 230.964844 111.867188 C 231.589844 113.191406 232.183594 114.527344 232.742188 115.882812 C 233.304688 117.234375 233.832031 118.597656 234.324219 119.976562 C 234.816406 121.355469 235.277344 122.746094 235.699219 124.144531 C 236.125 125.546875 236.515625 126.957031 236.871094 128.375 C 237.226562 129.796875 237.546875 131.226562 237.832031 132.660156 C 238.121094 134.097656 238.371094 135.539062 238.585938 136.984375 C 238.800781 138.433594 238.976562 139.886719 239.121094 141.34375 C 239.265625 142.800781 239.371094 144.257812 239.445312 145.722656 C 239.515625 147.183594 239.550781 148.644531 239.550781 150.109375 Z M 239.550781 150.109375 " fill-opacity="1" fill-rule="nonzero"/><path fill="#ffffff" d="M 136.082031 128.625 L 131.246094 114.179688 C 129.082031 107.707031 122.078125 104.21875 115.609375 106.382812 C 115.167969 106.53125 114.734375 106.703125 114.3125 106.902344 L 106.511719 110.535156 C 101.277344 112.980469 98.429688 118.722656 99.65625 124.367188 C 104.539062 146.949219 122.488281 201.019531 183.09375 207.761719 C 188.007812 208.308594 192.78125 205.875 195.21875 201.566406 L 199.238281 194.460938 C 202.601562 188.523438 200.511719 180.984375 194.574219 177.621094 L 194.492188 177.574219 L 183.6875 171.574219 C 178.886719 168.902344 172.894531 169.726562 168.988281 173.597656 C 165.117188 177.445312 159.171875 178.289062 154.378906 175.667969 C 147.8125 172.058594 138.808594 165.90625 132.5 156.816406 C 129.589844 152.644531 129.523438 147.121094 132.332031 142.882812 L 134.65625 139.390625 C 136.765625 136.214844 137.292969 132.242188 136.082031 128.625 Z M 136.082031 128.625 " fill-opacity="1" fill-rule="nonzero"/></svg>